<svg width="183" height="183" viewBox="0 0 183 183" fill="none" xmlns="http://www.w3.org/2000/svg">
<path d="M152 0C169.121 0 183 13.8792 183 31V152C183 169.121 169.121 183 152 183H31C13.8792 183 0 169.121 0 152V31C0 13.8792 13.8792 0 31 0H152ZM46.0859 141.805C53.9623 159.017 71.3344 170.977 91.501 170.977C119.071 170.976 141.42 148.626 141.42 121.057C141.42 119.459 141.343 117.88 141.196 116.321L46.0859 141.805ZM41.9043 115.352C41.6913 117.224 41.582 119.127 41.582 121.057C41.5821 124.38 41.9096 127.628 42.5293 130.771L138.774 104.981C137.092 100.032 134.654 95.4321 131.598 91.3184L41.9043 115.352ZM88.0527 44.3096C85.9321 42.7545 84.4173 42.629 82.6709 44.3096C80.9233 45.9922 41.6184 102.227 41.5801 102.282L127.525 79.2539C127.483 79.2163 90.1722 45.8638 88.0527 44.3096ZM22.4922 41.0635L26.8271 64.3955C25.5463 63.6294 23.9262 63.3109 22.2617 63.6201C18.8935 64.246 16.6182 67.2043 17.1797 70.2285C17.7416 73.253 20.9283 75.1972 24.2969 74.5713C27.6652 73.9452 29.9408 70.9862 29.3789 67.9619L25.585 47.5439L44.5811 40.5576L47.5332 56.4482C46.2524 55.6821 44.6322 55.3637 42.9678 55.6729C39.5995 56.2987 37.3243 59.2571 37.8857 62.2812C38.4477 65.3057 41.6344 67.2499 45.0029 66.624C48.371 65.9979 50.6457 63.0398 50.084 60.0156L45.0234 32.7773L22.4922 41.0635ZM149.507 51.0371C148.319 49.6368 146.569 48.6405 144.531 48.376C140.407 47.841 136.663 50.5034 136.167 54.3223C135.672 58.1412 138.613 61.6709 142.737 62.2061C146.861 62.7407 150.607 60.0789 151.103 56.2607L154.894 27.0371C155.452 27.5695 156.248 28.0989 157.379 28.5576C160.769 29.9344 162.198 33.4647 162.671 34.9912C162.749 35.2409 162.957 35.4034 163.189 35.4336C163.306 35.4486 163.429 35.4314 163.544 35.374C163.762 35.2647 163.901 35.0374 163.904 34.7881C163.955 30.8105 162.886 28.3448 159.133 26.0176C155.404 23.7046 155.825 19.8551 155.863 19.5586L155.865 19.54L153.63 19.25L149.507 51.0371ZM84.5986 15.0391C83.51 13.2043 80.9481 13.4772 80.2705 15.5L78.5879 20.5273C78.5342 20.6857 78.3791 20.7754 78.2246 20.7373L73.333 19.5146C71.3634 19.0231 69.7585 21.1616 70.6221 23.127L72.7666 28.0088C72.8342 28.1627 72.7856 28.3451 72.6523 28.4346L68.4385 31.2656C66.7423 32.4057 67.0351 35.1561 68.9336 35.9121L73.6494 37.79C73.7984 37.8493 73.885 38.0171 73.8516 38.1816L72.9912 42.3955C72.9754 42.7638 72.9377 44.4773 74.0215 45.5107C75.3559 46.7834 77.1305 47.5143 79.2861 44.5947C81.1245 42.1047 81.8515 40.2988 84.376 40.0508C86.5729 39.8356 88.5933 40.8281 90.7344 42.5332C92.5857 44.0074 95.962 44.4788 97.0332 43.0566C97.8855 41.9253 97.4841 40.1901 97.3838 39.7949L95.6543 35.8574C95.5869 35.7036 95.6364 35.521 95.7695 35.4316L99.9834 32.6016C101.68 31.4616 101.387 28.7112 99.4883 27.9551L94.7715 26.0771C94.6226 26.0177 94.5367 25.8492 94.5703 25.6846L95.6377 20.46C96.0667 18.3561 94.0482 16.6045 92.2266 17.501L87.7021 19.7266C87.5592 19.7972 87.3879 19.7413 87.3027 19.5977L84.5986 15.0391Z" fill="url(#paint0_radial_6_110)"/>
<defs>
<radialGradient id="paint0_radial_6_110" cx="0" cy="0" r="1" gradientUnits="userSpaceOnUse" gradientTransform="translate(91.5 157.071) rotate(-119.14) scale(149.566)">
<stop stop-color="#6B2F99"/>
<stop offset="1" stop-color="#B34EFF"/>
</radialGradient>
</defs>
</svg>
