<svg width="475" height="183" viewBox="0 0 475 183" fill="none" xmlns="http://www.w3.org/2000/svg">
<g clip-path="url(#clip0_9_169)">
<rect x="6.56189" y="3.55847" width="167.808" height="174.8" rx="22" fill="white"/>
<mask id="mask0_9_169" style="mask-type:luminance" maskUnits="userSpaceOnUse" x="0" y="0" width="183" height="183">
<path d="M183 0H0V183H183V0Z" fill="white"/>
</mask>
<g mask="url(#mask0_9_169)">
<path d="M152 0C169.121 0 183 13.8792 183 31V152C183 169.121 169.121 183 152 183H31C13.8792 183 0 169.121 0 152V31C0 13.8792 13.8792 0 31 0H152ZM46.0859 141.805C53.9623 159.017 71.3344 170.977 91.501 170.977C119.071 170.976 141.42 148.626 141.42 121.057C141.42 119.459 141.343 117.88 141.196 116.321L46.0859 141.805ZM41.9043 115.352C41.6913 117.224 41.582 119.127 41.582 121.057C41.5821 124.38 41.9096 127.628 42.5293 130.771L138.774 104.981C137.092 100.032 134.654 95.4321 131.598 91.3184L41.9043 115.352ZM88.0527 44.3096C85.9321 42.7545 84.4173 42.629 82.6709 44.3096C80.9233 45.9922 41.6184 102.227 41.5801 102.282L127.525 79.2539C127.483 79.2163 90.1722 45.8638 88.0527 44.3096ZM22.4922 41.0635L26.8271 64.3955C25.5463 63.6294 23.9262 63.3109 22.2617 63.6201C18.8935 64.246 16.6182 67.2043 17.1797 70.2285C17.7416 73.253 20.9283 75.1972 24.2969 74.5713C27.6652 73.9452 29.9408 70.9862 29.3789 67.9619L25.585 47.5439L44.5811 40.5576L47.5332 56.4482C46.2524 55.6821 44.6322 55.3637 42.9678 55.6729C39.5995 56.2987 37.3243 59.2571 37.8857 62.2812C38.4477 65.3057 41.6344 67.2499 45.0029 66.624C48.371 65.9979 50.6457 63.0398 50.084 60.0156L45.0234 32.7773L22.4922 41.0635ZM149.507 51.0371C148.319 49.6368 146.569 48.6405 144.531 48.376C140.407 47.841 136.663 50.5034 136.167 54.3223C135.672 58.1412 138.613 61.6709 142.737 62.2061C146.861 62.7407 150.607 60.0789 151.103 56.2607L154.894 27.0371C155.452 27.5695 156.248 28.0989 157.379 28.5576C160.769 29.9344 162.198 33.4647 162.671 34.9912C162.749 35.2409 162.957 35.4034 163.189 35.4336C163.306 35.4486 163.429 35.4314 163.544 35.374C163.762 35.2647 163.901 35.0374 163.904 34.7881C163.955 30.8105 162.886 28.3448 159.133 26.0176C155.404 23.7046 155.825 19.8551 155.863 19.5586L155.865 19.54L153.63 19.25L149.507 51.0371ZM84.5986 15.0391C83.51 13.2043 80.9481 13.4772 80.2705 15.5L78.5879 20.5273C78.5342 20.6857 78.3791 20.7754 78.2246 20.7373L73.333 19.5146C71.3634 19.0231 69.7585 21.1616 70.6221 23.127L72.7666 28.0088C72.8342 28.1627 72.7856 28.3451 72.6523 28.4346L68.4385 31.2656C66.7423 32.4057 67.0351 35.1561 68.9336 35.9121L73.6494 37.79C73.7984 37.8493 73.885 38.0171 73.8516 38.1816L72.9912 42.3955C72.9754 42.7638 72.9377 44.4773 74.0215 45.5107C75.3559 46.7834 77.1305 47.5143 79.2861 44.5947C81.1245 42.1047 81.8515 40.2988 84.376 40.0508C86.5729 39.8356 88.5933 40.8281 90.7344 42.5332C92.5857 44.0074 95.962 44.4788 97.0332 43.0566C97.8855 41.9253 97.4841 40.1901 97.3838 39.7949L95.6543 35.8574C95.5869 35.7036 95.6364 35.521 95.7695 35.4316L99.9834 32.6016C101.68 31.4616 101.387 28.7112 99.4883 27.9551L94.7715 26.0771C94.6226 26.0177 94.5367 25.8492 94.5703 25.6846L95.6377 20.46C96.0667 18.3561 94.0482 16.6045 92.2266 17.501L87.7021 19.7266C87.5592 19.7972 87.3879 19.7413 87.3027 19.5977L84.5986 15.0391Z" fill="url(#paint0_radial_9_169)"/>
</g>
<path d="M213.23 116C212.248 116 211.395 115.637 210.67 114.912C209.944 114.187 209.582 113.333 209.582 112.352V72.928C209.582 71.9467 209.944 71.0933 210.67 70.368C211.395 69.6427 212.248 69.28 213.23 69.28H214.83C215.939 69.28 216.963 69.5787 217.902 70.176C218.84 70.7733 219.523 71.5627 219.95 72.544L231.15 96.736C231.15 96.7787 231.171 96.8 231.214 96.8C231.256 96.8 231.278 96.7787 231.278 96.736L242.478 72.544C242.904 71.5627 243.587 70.7733 244.526 70.176C245.464 69.5787 246.488 69.28 247.598 69.28H249.454C250.435 69.28 251.288 69.6427 252.014 70.368C252.739 71.0933 253.102 71.9467 253.102 72.928V112.352C253.102 113.333 252.739 114.187 252.014 114.912C251.288 115.637 250.435 116 249.454 116H248.046C247.064 116 246.211 115.637 245.486 114.912C244.76 114.187 244.398 113.333 244.398 112.352V84.512C244.398 84.4693 244.376 84.448 244.334 84.448C244.291 84.448 244.27 84.4693 244.27 84.512L236.59 100.96C236.12 101.941 235.395 102.752 234.414 103.392C233.475 103.989 232.472 104.288 231.406 104.288H231.022C229.955 104.288 228.931 103.989 227.95 103.392C227.011 102.752 226.307 101.941 225.838 100.96L218.158 84.512C218.158 84.4693 218.136 84.448 218.094 84.448C218.051 84.448 218.03 84.4693 218.03 84.512V112.352C218.03 113.333 217.667 114.187 216.942 114.912C216.216 115.637 215.363 116 214.382 116H213.23ZM276.135 88.032C273.959 88.032 272.273 88.6507 271.079 89.888C269.927 91.0827 269.201 93.024 268.903 95.712C268.903 96.0533 269.073 96.224 269.415 96.224H281.959C282.3 96.224 282.471 96.0533 282.471 95.712C282.3 90.592 280.188 88.032 276.135 88.032ZM277.735 116.64C272.145 116.64 267.836 115.189 264.807 112.288C261.82 109.344 260.327 105.035 260.327 99.36C260.327 93.728 261.671 89.44 264.359 86.496C267.047 83.552 270.929 82.08 276.007 82.08C285.479 82.08 290.343 87.456 290.599 98.208C290.641 99.232 290.279 100.085 289.511 100.768C288.743 101.451 287.847 101.792 286.823 101.792H269.351C268.967 101.792 268.817 101.984 268.903 102.368C269.201 105.227 270.14 107.317 271.719 108.64C273.34 109.92 275.687 110.56 278.759 110.56C280.679 110.56 282.812 110.24 285.159 109.6C285.927 109.387 286.631 109.515 287.271 109.984C287.953 110.453 288.295 111.093 288.295 111.904C288.295 112.885 287.996 113.76 287.399 114.528C286.844 115.253 286.097 115.701 285.159 115.872C282.769 116.384 280.295 116.64 277.735 116.64ZM311.697 88.032C309.521 88.032 307.836 88.6507 306.641 89.888C305.489 91.0827 304.764 93.024 304.465 95.712C304.465 96.0533 304.636 96.224 304.977 96.224H317.521C317.863 96.224 318.033 96.0533 318.033 95.712C317.863 90.592 315.751 88.032 311.697 88.032ZM313.297 116.64C307.708 116.64 303.399 115.189 300.369 112.288C297.383 109.344 295.889 105.035 295.889 99.36C295.889 93.728 297.233 89.44 299.921 86.496C302.609 83.552 306.492 82.08 311.569 82.08C321.041 82.08 325.905 87.456 326.161 98.208C326.204 99.232 325.841 100.085 325.073 100.768C324.305 101.451 323.409 101.792 322.385 101.792H304.913C304.529 101.792 304.38 101.984 304.465 102.368C304.764 105.227 305.703 107.317 307.281 108.64C308.903 109.92 311.249 110.56 314.321 110.56C316.241 110.56 318.375 110.24 320.721 109.6C321.489 109.387 322.193 109.515 322.833 109.984C323.516 110.453 323.857 111.093 323.857 111.904C323.857 112.885 323.559 113.76 322.961 114.528C322.407 115.253 321.66 115.701 320.721 115.872C318.332 116.384 315.857 116.64 313.297 116.64ZM333.914 90.208C333.06 90.208 332.335 89.9093 331.738 89.312C331.14 88.672 330.842 87.9253 330.842 87.072C330.842 86.2187 331.14 85.4933 331.738 84.896C332.335 84.2987 333.06 84 333.914 84H336.986C337.37 84 337.562 83.808 337.562 83.424V75.488C337.562 74.5067 337.903 73.6533 338.586 72.928C339.311 72.2027 340.164 71.84 341.146 71.84H342.426C343.407 71.84 344.26 72.2027 344.986 72.928C345.711 73.6533 346.074 74.5067 346.074 75.488V83.424C346.074 83.808 346.266 84 346.65 84H353.946C354.799 84 355.524 84.2987 356.122 84.896C356.762 85.4933 357.082 86.2187 357.082 87.072C357.082 87.9253 356.762 88.672 356.122 89.312C355.524 89.9093 354.799 90.208 353.946 90.208H346.65C346.266 90.208 346.074 90.3787 346.074 90.72V103.648C346.074 106.421 346.372 108.213 346.97 109.024C347.567 109.835 348.804 110.24 350.682 110.24C351.706 110.24 352.474 110.197 352.986 110.112C353.839 110.027 354.586 110.219 355.226 110.688C355.866 111.157 356.186 111.797 356.186 112.608C356.186 113.547 355.866 114.4 355.226 115.168C354.628 115.893 353.882 116.299 352.986 116.384C351.108 116.555 349.7 116.64 348.762 116.64C344.623 116.64 341.722 115.765 340.058 114.016C338.394 112.224 337.562 109.045 337.562 104.48V90.72C337.562 90.3787 337.37 90.208 336.986 90.208H333.914ZM364.13 76.704C363.148 76.704 362.295 76.3627 361.57 75.68C360.844 74.9547 360.482 74.1013 360.482 73.12V72.928C360.482 71.9467 360.844 71.0933 361.57 70.368C362.295 69.6427 363.148 69.28 364.13 69.28H391.394C392.375 69.28 393.228 69.6427 393.954 70.368C394.679 71.0933 395.042 71.9467 395.042 72.928V73.12C395.042 74.1013 394.679 74.9547 393.954 75.68C393.228 76.3627 392.375 76.704 391.394 76.704H382.818C382.476 76.704 382.306 76.896 382.306 77.28V112.352C382.306 113.333 381.943 114.187 381.218 114.912C380.492 115.637 379.639 116 378.658 116H376.866C375.884 116 375.031 115.637 374.306 114.912C373.58 114.187 373.218 113.333 373.218 112.352V77.28C373.218 76.896 373.047 76.704 372.706 76.704H364.13ZM407.23 116C406.248 116 405.395 115.637 404.67 114.912C403.944 114.187 403.582 113.333 403.582 112.352V72.928C403.582 71.9467 403.944 71.0933 404.67 70.368C405.395 69.6427 406.248 69.28 407.23 69.28H408.83C409.939 69.28 410.963 69.5787 411.902 70.176C412.84 70.7733 413.523 71.5627 413.95 72.544L425.15 96.736C425.15 96.7787 425.171 96.8 425.214 96.8C425.256 96.8 425.278 96.7787 425.278 96.736L436.478 72.544C436.904 71.5627 437.587 70.7733 438.526 70.176C439.464 69.5787 440.488 69.28 441.598 69.28H443.454C444.435 69.28 445.288 69.6427 446.014 70.368C446.739 71.0933 447.102 71.9467 447.102 72.928V112.352C447.102 113.333 446.739 114.187 446.014 114.912C445.288 115.637 444.435 116 443.454 116H442.046C441.064 116 440.211 115.637 439.486 114.912C438.76 114.187 438.398 113.333 438.398 112.352V84.512C438.398 84.4693 438.376 84.448 438.334 84.448C438.291 84.448 438.27 84.4693 438.27 84.512L430.59 100.96C430.12 101.941 429.395 102.752 428.414 103.392C427.475 103.989 426.472 104.288 425.406 104.288H425.022C423.955 104.288 422.931 103.989 421.95 103.392C421.011 102.752 420.307 101.941 419.838 100.96L412.158 84.512C412.158 84.4693 412.136 84.448 412.094 84.448C412.051 84.448 412.03 84.4693 412.03 84.512V112.352C412.03 113.333 411.667 114.187 410.942 114.912C410.216 115.637 409.363 116 408.382 116H407.23ZM461.495 116C460.513 116 459.66 115.637 458.935 114.912C458.209 114.187 457.847 113.333 457.847 112.352V108.768C457.847 107.787 458.209 106.933 458.935 106.208C459.66 105.483 460.513 105.12 461.495 105.12H464.439C465.42 105.12 466.273 105.483 466.999 106.208C467.724 106.933 468.087 107.787 468.087 108.768V112.352C468.087 113.333 467.724 114.187 466.999 114.912C466.273 115.637 465.42 116 464.439 116H461.495Z" fill="white"/>
</g>
<defs>
<radialGradient id="paint0_radial_9_169" cx="0" cy="0" r="1" gradientUnits="userSpaceOnUse" gradientTransform="translate(91.5 157.071) rotate(-119.14) scale(149.566)">
<stop stop-color="#6B2F99"/>
<stop offset="1" stop-color="#B34EFF"/>
</radialGradient>
<clipPath id="clip0_9_169">
<rect width="475" height="183" fill="white"/>
</clipPath>
</defs>
</svg>
