<svg width="183" height="183" viewBox="0 0 183 183" fill="none" xmlns="http://www.w3.org/2000/svg">
<rect width="183" height="183" rx="31" fill="#B34EFF"/>
<path d="M141.196 116.321C141.343 117.88 141.42 119.46 141.42 121.057C141.42 148.627 119.071 170.976 91.501 170.976C71.3344 170.976 53.9628 159.017 46.0864 141.805L141.196 116.321Z" fill="white"/>
<path d="M131.597 91.3185C134.653 95.4322 137.092 100.032 138.775 104.981L42.5288 130.77C41.9092 127.628 41.5817 124.381 41.5817 121.057C41.5817 119.128 41.6909 117.224 41.904 115.351L131.597 91.3185Z" fill="white"/>
<path d="M131.597 91.3185C134.653 95.4322 137.092 100.032 138.775 104.981L42.5288 130.77C41.9092 127.628 41.5817 124.381 41.5817 121.057C41.5817 119.128 41.6909 117.224 41.904 115.351L131.597 91.3185Z" fill="white"/>
<path d="M82.6709 44.3093C84.4174 42.6288 85.9324 42.7542 88.0531 44.3093C90.1738 45.8645 127.526 79.2535 127.526 79.2535L41.5797 102.282C41.5797 102.282 80.9245 45.9899 82.6709 44.3093Z" fill="white"/>
<g clip-path="url(#clip0_6_85)">
<path d="M84.3763 40.0507C81.8516 40.2986 81.1242 42.1042 79.2857 44.5943C77.1299 47.5143 75.3557 46.7832 74.0212 45.5103C72.9373 44.4767 72.975 42.7634 72.9909 42.3953L73.8514 38.182C73.8851 38.0173 73.7989 37.8494 73.6498 37.79L68.9338 35.9116C67.0353 35.1556 66.7421 32.4052 68.4385 31.2652L72.6525 28.4348C72.7857 28.3453 72.8346 28.1631 72.767 28.0091L70.6217 23.1267C69.7581 21.1613 71.3629 19.0233 73.3325 19.5148L78.2245 20.7368C78.3791 20.7751 78.5341 20.6856 78.5878 20.5271L80.2702 15.5003C80.9476 13.4771 83.51 13.204 84.5987 15.0389L87.303 19.598C87.3882 19.7417 87.5593 19.7972 87.7023 19.7265L92.2268 17.5007C94.0484 16.6042 96.0671 18.3559 95.6381 20.4598L94.5703 25.6848C94.5367 25.8495 94.6229 26.0174 94.7719 26.0768L99.4879 27.9552C101.386 28.7112 101.68 31.4616 99.9833 32.6016L95.7693 35.432C95.636 35.5214 95.5872 35.7037 95.6548 35.8577L97.3842 39.7949C97.4846 40.1901 97.8861 41.9257 97.0337 43.0571C95.9625 44.4793 92.5854 44.0074 90.7341 42.5331C88.5931 40.828 86.5732 39.8355 84.3763 40.0507Z" fill="white"/>
</g>
<path d="M50.0835 60.0159C50.6452 63.0402 48.3707 65.9983 45.0024 66.6243C41.6339 67.2502 38.4472 65.306 37.8853 62.2816C37.3237 59.2573 39.5989 56.299 42.9673 55.6732C44.6319 55.3639 46.2518 55.6824 47.5327 56.4485L44.5806 40.5579L25.5845 47.5443L29.3784 67.9622C29.9404 70.9866 27.6649 73.9456 24.2964 74.5716C20.9278 75.1975 17.7411 73.2533 17.1792 70.2288C16.6175 67.2045 18.8929 64.2464 22.2612 63.6204C23.9258 63.3111 25.5458 63.6296 26.8267 64.3958L22.4917 41.0638L45.0229 32.7776L50.0835 60.0159ZM155.865 19.5403L155.862 19.5589C155.823 19.8559 155.404 23.7051 159.132 26.0179C162.886 28.3452 163.954 30.8105 163.904 34.7884C163.901 35.038 163.762 35.2651 163.543 35.3743V35.3734C163.428 35.4312 163.305 35.4491 163.188 35.4339C162.956 35.4036 162.747 35.2411 162.669 34.9915C162.197 33.465 160.768 29.9346 157.377 28.5579C156.247 28.0992 155.45 27.5699 154.892 27.0374L151.101 56.261C150.605 60.0793 146.861 62.7413 142.737 62.2064C138.613 61.6713 135.67 58.1416 136.166 54.3226C136.661 50.5036 140.406 47.8415 144.53 48.3763C146.567 48.6406 148.317 49.637 149.505 51.0374L153.629 19.2503L155.865 19.5403Z" fill="white"/>
<defs>
<clipPath id="clip0_6_85">
<rect width="33.9358" height="32.0306" fill="white" transform="translate(65.4075 15.6209) rotate(-6.08497)"/>
</clipPath>
</defs>
</svg>
